<?xml version="1.0" encoding="utf-8"?>
<!-- Generator: Adobe Illustrator 25.4.1, SVG Export Plug-In . SVG Version: 6.00 Build 0)  -->
<svg version="1.1" id="Layer_1" xmlns="http://www.w3.org/2000/svg" xmlns:xlink="http://www.w3.org/1999/xlink" x="0px" y="0px"
	 viewBox="0 0 250 250" style="enable-background:new 0 0 250 250;" xml:space="preserve">
<style type="text/css">
	.st0{fill:#3457D5;}
	.st1{fill:#FFFFFF;}
	.st2{fill:#B7B7B9;}
	.st3{fill:#E8EDF1;}
	.st4{fill:#373737;}
	.st5{fill:#FF0033;}
	.st6{fill:#FFC443;}
	.st7{fill:#66FF00;}
	.st8{fill:#ED2C7D;}
	.st9{fill:#F79838;}
	.st10{fill:#5AB94E;}
	.st11{fill:#4EC6E0;}
	.st12{fill:#835EF7;}
	.st13{fill:#ED39F7;}
	.st14{fill:#8763F7;}
	.st15{fill:#CF50D6;}
	.st16{fill:#4895EF;}
	.st17{fill:#25B596;}
	.st18{fill:#4CC9F0;}
	.st19{fill:#333333;}
	.st20{fill:#275F8E;}
	.st21{fill:none;stroke:#CCEBF3;stroke-miterlimit:10;}
	.st22{fill:#0396C7;}
	.st23{fill:none;stroke:#FCFDFF;stroke-miterlimit:10;}
	.st24{fill:none;stroke:#FFFFFF;stroke-miterlimit:10;}
	.st25{fill:none;stroke:#FFFFFF;stroke-linecap:round;stroke-miterlimit:10;}
	.st26{fill:#EC174C;}
	.st27{fill:#F0F1F4;}
	.st28{fill:none;stroke:#333333;stroke-width:3;stroke-linecap:round;stroke-miterlimit:10;}
	.st29{fill:url(#SVGID_1_);}
	.st30{fill:#1F4386;stroke:#FFFFFF;stroke-miterlimit:10;}
	.st31{fill:url(#SVGID_00000168821617401326806190000014596725311617801610_);}
	.st32{fill:url(#SVGID_00000180327464692635526510000010449989019408192186_);}
	.st33{fill:url(#SVGID_00000103243106789385362420000009770733094796065965_);}
	.st34{fill:#1A40CA;}
	.st35{fill:#EFEFEF;}
	.st36{fill:#C9C9D1;}
</style>
<circle class="st0" cx="125" cy="125.6" r="122"/>
<g>
	<path class="st1" d="M182.2,111.6v70.9c0,7.3-5.9,13.3-13.3,13.3h0c-7.3,0-13.3-5.9-13.3-13.3v-69.7c0-12.9-7.9-24.6-20-29
		c-3.9-1.4-8.2-2.1-12.5-1.9c-0.3,0-0.7,0-1,0.1c-15.8,1.4-27.8,15-27.8,30.9v69.6c0,7.3-5.9,13.3-13.3,13.3h0
		c-7.3,0-13.3-5.9-13.3-13.3v-70.9c0-31,24.7-56.7,55.7-57.3c0.5,0,1,0,1.5,0c0.5,0,1,0,1.4,0C157.5,54.9,182.2,80.5,182.2,111.6z"
		/>
	<path class="st1" d="M111.7,124.6c0.5,0.7,5.6,6.7,13.9,6.4c7.6-0.3,12-5.6,12.6-6.4v57.8c0,7.3-5.9,13.3-13.3,13.3h0
		c-7.3,0-13.3-5.9-13.3-13.3V124.6z"/>
	<circle class="st1" cx="125.2" cy="110.3" r="11.7"/>
</g>
<g>
	
		<image style="overflow:visible;opacity:0.75;" width="1714" height="1050" xlink:href="A64BD86F.png"  transform="matrix(0.24 0 0 0.24 1102.6171 -37.4978)">
	</image>
	<g>
		<g>
			<g>
				<g>
					<g>
						<path class="st2" d="M1478.1,192.5h-353.2c-2.5,0-4.9-0.5-7.1-1.6l0,0c-1.6-0.7-2.8-1.5-3.7-2.2c125.9,0,251.7,0.1,377.6,0.1
							c-1,0.6-2.2,1.1-3.4,1.7c0,0,0,0-0.1,0C1485,191.8,1481.5,192.5,1478.1,192.5z"/>
					</g>
					<path class="st0" d="M1458.7,182.5H1143V-17.2c0-6.6,5.4-12.1,12.1-12.1h291.7c6.7,0,12.1,5.4,12.1,12.1L1458.7,182.5
						L1458.7,182.5z"/>
					<g>
						<path class="st3" d="M1486.4,189.5h-370.2c-3.1,0-5.5-2.5-5.5-5.5v-1.6H1492v1.6C1492,187,1489.5,189.5,1486.4,189.5z"/>
					</g>
				</g>
			</g>
		</g>
	</g>
</g>
<path class="st1" d="M1442.3,171.3h-281.8c-5.5,0-9.9-4.4-9.9-9.9V-11.7c0-5.5,4.4-9.9,9.9-9.9h281.8c5.5,0,9.9,4.4,9.9,9.9v173.1
	C1452.2,166.9,1447.8,171.3,1442.3,171.3z"/>
<g>
	
		<image style="overflow:visible;opacity:0.75;" width="1088" height="731" xlink:href="A64BD86D.png"  transform="matrix(0.24 0 0 0.24 990.297 -115.9778)">
	</image>
	<g>
		<g>
			<g>
				<path class="st1" d="M1216.9,37.4h-206c-6.9,0-12.4-5.6-12.4-12.4V-95.5c0-6.9,5.6-12.4,12.4-12.4h206c6.9,0,12.4,5.6,12.4,12.4
					V25C1229.3,31.9,1223.7,37.4,1216.9,37.4z"/>
			</g>
		</g>
	</g>
</g>
<path class="st4" d="M1229.3-91H998.5v-8.3c0-5.6,4.5-10.1,10.1-10.1h210.7c5.6,0,10.1,4.5,10.1,10.1V-91z"/>
<circle class="st5" cx="1014.9" cy="-98.8" r="3.2"/>
<circle class="st6" cx="1026" cy="-98.8" r="3.2"/>
<circle class="st7" cx="1037.1" cy="-98.8" r="3.2"/>
<g>
	<path class="st8" d="M1028.3-69.8h-21.1c-0.7,0-1.3-0.6-1.3-1.3v-1.1c0-0.7,0.6-1.3,1.3-1.3h21.1c0.7,0,1.3,0.6,1.3,1.3v1.1
		C1029.6-70.3,1029-69.8,1028.3-69.8z"/>
	<path class="st9" d="M1178.7-69.8h-40.4c-0.7,0-1.3-0.6-1.3-1.3v-1.1c0-0.7,0.6-1.3,1.3-1.3h40.4c0.7,0,1.3,0.6,1.3,1.3v1.1
		C1180-70.3,1179.4-69.8,1178.7-69.8z"/>
	<path class="st9" d="M1074.2,19.6h-18.9c-0.7,0-1.3-0.6-1.3-1.3v-1.1c0-0.7,0.6-1.3,1.3-1.3h18.9c0.7,0,1.3,0.6,1.3,1.3v1.1
		C1075.5,19,1075,19.6,1074.2,19.6z"/>
	<path class="st8" d="M1142.9-57h-30.8c-0.7,0-1.3-0.6-1.3-1.3v-1.1c0-0.7,0.6-1.3,1.3-1.3h30.8c0.7,0,1.3,0.6,1.3,1.3v1.1
		C1144.2-57.6,1143.6-57,1142.9-57z"/>
	<path class="st10" d="M1115.7,19.6h-30.8c-0.7,0-1.3-0.6-1.3-1.3v-1.1c0-0.7,0.6-1.3,1.3-1.3h30.8c0.7,0,1.3,0.6,1.3,1.3v1.1
		C1117,19,1116.4,19.6,1115.7,19.6z"/>
	<path class="st11" d="M1210-18.7h-30.8c-0.7,0-1.3-0.6-1.3-1.3v-1.1c0-0.7,0.6-1.3,1.3-1.3h30.8c0.7,0,1.3,0.6,1.3,1.3v1.1
		C1211.3-19.3,1210.7-18.7,1210-18.7z"/>
	<path class="st8" d="M1110.4-31.5h-30.8c-0.7,0-1.3-0.6-1.3-1.3v-1.1c0-0.7,0.6-1.3,1.3-1.3h30.8c0.7,0,1.3,0.6,1.3,1.3v1.1
		C1111.7-32,1111.1-31.5,1110.4-31.5z"/>
	<path class="st12" d="M1182.5,6.8h-99.2c-0.7,0-1.3-0.6-1.3-1.3V4.5c0-0.7,0.6-1.3,1.3-1.3h99.2c0.7,0,1.3,0.6,1.3,1.3v1.1
		C1183.8,6.3,1183.2,6.8,1182.5,6.8z"/>
	<path class="st10" d="M1212.4-69.8h-23.1c-0.7,0-1.3-0.6-1.3-1.3v-1.1c0-0.7,0.6-1.3,1.3-1.3h23.1c0.7,0,1.3,0.6,1.3,1.3v1.1
		C1213.7-70.3,1213.1-69.8,1212.4-69.8z"/>
	<path class="st10" d="M1143.5-31.5h-23.1c-0.7,0-1.3-0.6-1.3-1.3v-1.1c0-0.7,0.6-1.3,1.3-1.3h23.1c0.7,0,1.3,0.6,1.3,1.3v1.1
		C1144.8-32,1144.2-31.5,1143.5-31.5z"/>
	<path class="st13" d="M1102.2-57h-64.1c-0.7,0-1.3-0.6-1.3-1.3v-1.1c0-0.7,0.6-1.3,1.3-1.3h64.1c0.7,0,1.3,0.6,1.3,1.3v1.1
		C1103.5-57.6,1102.9-57,1102.2-57z"/>
	<path class="st14" d="M1129.1-69.8h-91c-0.7,0-1.3-0.6-1.3-1.3v-1.1c0-0.7,0.6-1.3,1.3-1.3h91c0.7,0,1.3,0.6,1.3,1.3v1.1
		C1130.4-70.3,1129.9-69.8,1129.1-69.8z"/>
	<path class="st11" d="M1119.8-44.2h-112.6c-0.7,0-1.3-0.6-1.3-1.3v-1.1c0-0.7,0.6-1.3,1.3-1.3h112.6c0.7,0,1.3,0.6,1.3,1.3v1.1
		C1121.1-44.8,1120.5-44.2,1119.8-44.2z"/>
	<path class="st15" d="M1071.1-31.5h-50.2c-0.7,0-1.3-0.6-1.3-1.3v-1.1c0-0.7,0.6-1.3,1.3-1.3h50.2c0.7,0,1.3,0.6,1.3,1.3v1.1
		C1072.4-32,1071.8-31.5,1071.1-31.5z"/>
	<path class="st16" d="M1170.5-18.7h-135.6c-0.7,0-1.3-0.6-1.3-1.3v-1.1c0-0.7,0.6-1.3,1.3-1.3h135.6c0.7,0,1.3,0.6,1.3,1.3v1.1
		C1171.8-19.3,1171.2-18.7,1170.5-18.7z"/>
	<path class="st17" d="M1210.5-5.5h-186.2c-0.7,0-1.3-0.6-1.3-1.3v-1.1c0-0.7,0.6-1.3,1.3-1.3h186.2c0.7,0,1.3,0.6,1.3,1.3v1.1
		C1211.8-6.1,1211.2-5.5,1210.5-5.5z"/>
	<path class="st8" d="M1076.2,6.8h-61.6c-0.7,0-1.3-0.6-1.3-1.3V4.5c0-0.7,0.6-1.3,1.3-1.3h61.6c0.7,0,1.3,0.6,1.3,1.3v1.1
		C1077.5,6.3,1077,6.8,1076.2,6.8z"/>
	<path class="st18" d="M1044.8,19.6h-37.5c-0.7,0-1.3-0.6-1.3-1.3v-1.1c0-0.7,0.6-1.3,1.3-1.3h37.5c0.7,0,1.3,0.6,1.3,1.3v1.1
		C1046,19,1045.5,19.6,1044.8,19.6z"/>
</g>
<g>
	<g>
		<path class="st0" d="M1008.7-6.6l-7.9-6.1h-21.9c-2.6,0-4.7-2.1-4.7-4.7v-8.7c0-2.6,2.1-4.7,4.7-4.7h22.1c2.6,0,4.7,2.1,4.7,4.7
			v8.7c0,1.2-0.4,2.2-1.1,3.1L1008.7-6.6z"/>
	</g>
</g>
<g>
	
		<image style="overflow:visible;opacity:0.75;enable-background:new    ;" width="104" height="108" xlink:href="A64BD873.png"  transform="matrix(0.2285 0 0 0.2285 978.9624 -31.8529)">
	</image>
	<g>
		<g>
			<g>
				<path class="st1" d="M983.3-22.1c1,0,1.2-0.3,1.2-1v-1.1c0-1.5,1-2.1,2.2-2.1h0.5v1.4H987c-0.6,0-0.7,0.4-0.7,0.8v1.1
					c0,0.9-0.3,1.6-1.3,1.8c1.1,0.1,1.3,0.9,1.3,1.8v1.1c0,0.5,0.1,0.9,0.7,0.9h0.1v1.4h-0.5c-1.1,0-2.2-0.5-2.2-2.1v-1.2
					c0-0.7-0.2-1-1.2-1L983.3-22.1L983.3-22.1z"/>
				<path class="st1" d="M994.2-20.5c-1,0-1.2,0.3-1.2,1v1.1c0,1.5-1,2.1-2.2,2.1h-0.5v-1.4h0.2c0.6,0,0.7-0.4,0.7-0.8v-1.1
					c0-0.9,0.3-1.6,1.3-1.8c-1.1-0.1-1.3-0.9-1.3-1.8v-1.1c0-0.5-0.1-0.9-0.7-0.9h-0.1v-1.4h0.5c1.1,0,2.2,0.5,2.2,2.1v1.2
					c0,0.7,0.2,1,1.2,1L994.2-20.5L994.2-20.5z"/>
			</g>
		</g>
	</g>
</g>
<g>
	
		<image style="overflow:visible;opacity:0.75;enable-background:new    ;" width="1229" height="863" xlink:href="A64BD875.png"  transform="matrix(0.2383 0 0 0.2383 1162.3877 -22.8758)">
	</image>
	<g>
		<rect x="1183.4" y="-0.6" class="st1" width="234.8" height="145.4"/>
	</g>
</g>
<circle class="st1" cx="1300.9" cy="-25.7" r="2.7"/>
<path class="st4" d="M1418.3,17.9h-235V9.3c0-5.6,4.5-10.1,10.1-10.1h214.8c5.6,0,10.1,4.5,10.1,10.1V17.9z"/>
<g>
	<g>
		<g>
			<path class="st19" d="M1323.3,46.7h-126.8c-0.7,0-1.3-0.6-1.3-1.3v-1.1c0-0.7,0.6-1.3,1.3-1.3h126.8c0.7,0,1.3,0.6,1.3,1.3v1.1
				C1324.7,46.1,1324.1,46.7,1323.3,46.7z"/>
		</g>
		<g>
			<path class="st19" d="M1271.7,58.3h-75.2c-0.7,0-1.3-0.6-1.3-1.3v-1.1c0-0.7,0.6-1.3,1.3-1.3h75.2c0.7,0,1.3,0.6,1.3,1.3V57
				C1273,57.7,1272.5,58.3,1271.7,58.3z"/>
		</g>
		<g>
			<path class="st19" d="M1302.2,69.2h-105.7c-0.7,0-1.3-0.6-1.3-1.3v-1.1c0-0.7,0.6-1.3,1.3-1.3h105.7c0.7,0,1.3,0.6,1.3,1.3v1.1
				C1303.6,68.6,1303,69.2,1302.2,69.2z"/>
		</g>
		<g>
			<path class="st19" d="M1312.7,80.1h-116.2c-0.7,0-1.3-0.6-1.3-1.3v-1.1c0-0.7,0.6-1.3,1.3-1.3h116.2c0.7,0,1.3,0.6,1.3,1.3v1.1
				C1314,79.5,1313.4,80.1,1312.7,80.1z"/>
		</g>
		<path class="st19" d="M1237.2,91h-40.7c-0.7,0-1.3-0.6-1.3-1.3v-1.1c0-0.7,0.6-1.3,1.3-1.3h40.7c0.7,0,1.3,0.6,1.3,1.3v1.1
			C1238.5,90.4,1237.9,91,1237.2,91z"/>
		<g>
			<path class="st19" d="M1248.4,101.9h-51.9c-0.7,0-1.3-0.6-1.3-1.3v-1.1c0-0.7,0.6-1.3,1.3-1.3h51.9c0.7,0,1.3,0.6,1.3,1.3v1.1
				C1249.7,101.3,1249.1,101.9,1248.4,101.9z"/>
		</g>
		<g>
			<path class="st19" d="M1323.3,112.8h-126.8c-0.7,0-1.3-0.6-1.3-1.3v-1.1c0-0.7,0.6-1.3,1.3-1.3h126.8c0.7,0,1.3,0.6,1.3,1.3v1.1
				C1324.7,112.2,1324.1,112.8,1323.3,112.8z"/>
		</g>
	</g>
</g>
<circle class="st5" cx="1205.5" cy="8.5" r="3.3"/>
<circle class="st6" cx="1216.9" cy="8.5" r="3.3"/>
<circle class="st7" cx="1228.2" cy="8.5" r="3.3"/>
<g>
	
		<image style="overflow:visible;opacity:0.75;enable-background:new    ;" width="413" height="413" xlink:href="A64BD877.png"  transform="matrix(0.2359 0 0 0.2359 1325.0422 30.6442)">
	</image>
	<g>
		<path class="st20" d="M1401.1,114h-58.7c-4,0-7.3-3.3-7.3-7.3V48c0-4,3.3-7.3,7.3-7.3h58.7c4,0,7.3,3.3,7.3,7.3v58.7
			C1408.3,110.8,1405.1,114,1401.1,114z"/>
	</g>
</g>
<g>
	<path class="st21" d="M1365.1,105.2"/>
	<path class="st22" d="M1371.8,52.8v46.7c0,3.1-2.2,5.7-5.1,6.4c-3.1,0.7-6.3-1-7.6-4c-1.8,0.9-3.9,0.9-5.6-0.2
		c-1.9-1.3-2.8-3.9-1.9-6.3c-0.8-0.2-2.9-0.8-4.5-2.8c-2.7-3.2-1.8-7.3-1.7-7.7c-3.7-1.9-5.8-5.8-5.3-9.6c0.6-4.8,4.9-7.1,5.3-7.2
		c-0.2-0.9-0.6-2.9,0.1-5.1c1.3-4.1,5.2-5.6,5.8-5.8c0-0.1-0.8-3.3,1.4-5.5c1.8-1.7,4.6-2.1,7-0.8c1.2-2.6,4.1-4,6.8-3.5
		C1369.4,47.8,1371.5,50.1,1371.8,52.8z"/>
	<g>
		<circle class="st23" cx="1365.7" cy="51.8" r="2.3"/>
		<circle class="st23" cx="1364.4" cy="68.4" r="2.3"/>
		<circle class="st23" cx="1365.5" cy="99.8" r="2.3"/>
		<circle class="st23" cx="1351.1" cy="88.3" r="2.3"/>
		<circle class="st23" cx="1348.8" cy="76.7" r="2.3"/>
	</g>
	<g>
		<line class="st24" x1="1368" y1="51.8" x2="1379" y2="51.8"/>
		<path class="st24" d="M1366.7,68.4c4.2,0.1,8.3,0.2,12.5,0.3c3.2-3.4,6.4-6.7,9.6-10.1"/>
		<polyline class="st24" points="1351.1,76.7 1367.3,76.6 1372.5,80 1378,80 		"/>
		<polyline class="st24" points="1353.3,87.4 1379,87.6 1387.5,79.1 1397.1,78.7 		"/>
		<polyline class="st24" points="1367.6,98.8 1376.4,95.3 1387.3,95.3 		"/>
		<path class="st25" d="M1347.1,68.3c0.2-0.1,2.8-2.2,6-1.1c2.6,0.9,3.6,3.3,3.8,3.6"/>
		<path class="st25" d="M1368.4,58c-0.2,0.1-3.3,1.4-6.1-0.6c-2.3-1.6-2.6-4.2-2.6-4.6"/>
		<path class="st25" d="M1356,60.6c0.1,0.1,2.2,0.9,4-0.4c1.5-1.1,1.7-2.8,1.7-3"/>
		<path class="st25" d="M1359.6,101.2c0-0.2-0.5-3.6,2-5.8c2.1-1.8,4.7-1.5,5.1-1.4"/>
		<path class="st25" d="M1357.9,90.3c0.1,0,2.4-0.3,3.8,1.4c1.2,1.4,1,3.1,0.9,3.4"/>
	</g>
	<g>
		<circle class="st17" cx="1379" cy="51.8" r="2.9"/>
		<circle class="st17" cx="1379" cy="79.3" r="3.4"/>
		<circle class="st17" cx="1388.3" cy="95.4" r="3.9"/>
		<circle class="st17" cx="1398.7" cy="78.4" r="4.4"/>
		<circle class="st17" cx="1388.8" cy="58.6" r="4.4"/>
	</g>
</g>
<g>
	<g>
		<path class="st17" d="M1493.5,91.7l7.9-6.1h21.9c2.6,0,4.7-2.1,4.7-4.7v-8.7c0-2.6-2.1-4.7-4.7-4.7h-22.1c-2.6,0-4.7,2.1-4.7,4.7
			v8.7c0,1.2,0.4,2.2,1.2,3.1L1493.5,91.7z"/>
	</g>
</g>
<g>
	
		<image style="overflow:visible;opacity:0.75;enable-background:new    ;" width="129" height="108" xlink:href="A64BD874.png"  transform="matrix(0.2311 0 0 0.2311 1498.8956 65.4442)">
	</image>
	<g>
		<g>
			<g>
				<path class="st1" d="M1520.2,76.9l-5,2.5v-1.7l3.2-1.5l-3.2-1.5v-1.7l5,2.4V76.9z"/>
				<path class="st1" d="M1512.4,79.8l-2.8-8.4h1.6l2.8,8.4H1512.4z"/>
				<path class="st1" d="M1503.5,75.4l5-2.5v1.7l-3.2,1.5l3.2,1.5v1.7l-5-2.4V75.4z"/>
			</g>
		</g>
	</g>
</g>
<g>
	
		<image style="overflow:visible;opacity:0.75;" width="877" height="590" xlink:href="A64BD87C.png"  transform="matrix(0.24 0 0 0.24 1393.7371 -89.5778)">
	</image>
	<g>
		<g>
			<g>
				<g>
					<g>
						<path class="st1" d="M1582.1-63.8v76.1c0,1.3-0.1,2.5-0.4,3.7c-1.7,8-8.8,13.9-17.2,13.9h-145c-5.8,0-10.9-2.8-14.1-7.1
							c-2.2-2.9-3.5-6.6-3.5-10.6v-76.1c0-1.1,0.1-2.2,0.3-3.3c1.6-8.1,8.7-14.3,17.3-14.3h145c8.6,0,15.8,6.1,17.3,14.3
							C1582-66,1582.1-64.9,1582.1-63.8z"/>
						<g>
							<path class="st4" d="M1582.1-67.1h-180.2v-4.2c0-5.6,4.5-10.1,10.1-10.1H1572c5.6,0,10.1,4.5,10.1,10.1L1582.1-67.1
								L1582.1-67.1z"/>
						</g>
						<g>
							<circle class="st5" cx="1419.3" cy="-74.2" r="2.5"/>
						</g>
						<g>
							<circle class="st6" cx="1428" cy="-74.2" r="2.5"/>
						</g>
						<g>
							<circle class="st7" cx="1436.7" cy="-74.2" r="2.5"/>
						</g>
					</g>
				</g>
			</g>
			<g>
				<circle class="st17" cx="1540.5" cy="-21.3" r="24.6"/>
				<path class="st20" d="M1540.5-45.9c0,16.4,0,32.8,0,49.2c-1.4-0.1-13.4-0.7-20.2-10.6c-6.7-9.8-4.9-23.7,3.1-31.6
					C1529.8-45.3,1538.1-45.9,1540.5-45.9z"/>
				<path class="st6" d="M1556.9-39.6c-5.5,6.1-10.9,12.2-16.4,18.2c0-8.2,0-16.3,0-24.5c2.3,0,6.2,0.3,10.4,2.3
					C1553.5-42.4,1555.5-40.9,1556.9-39.6z"/>
				<path class="st26" d="M1565.1-21.8c-8.2,0.1-16.4,0.3-24.6,0.4c5.5-6.1,10.9-12.2,16.4-18.2c1.7,1.6,4.3,4.4,6.1,8.8
					C1564.6-27.2,1565-24,1565.1-21.8z"/>
			</g>
			<path class="st26" d="M1431.4-31.2v41.7c0,0.4-0.3,0.6-0.7,0.6h-6.4c-0.4,0-0.7-0.3-0.7-0.6v-41.7c0-0.4,0.3-0.6,0.7-0.6h6.4
				C1431.1-31.8,1431.4-31.6,1431.4-31.2z"/>
			<path class="st6" d="M1451.5-22.4v33.1c0,0.3-0.2,0.5-0.5,0.5h-6.8c-0.3,0-0.5-0.2-0.5-0.5v-33.1c0-0.3,0.2-0.5,0.5-0.5h6.8
				C1451.3-22.8,1451.5-22.6,1451.5-22.4z"/>
			<path class="st17" d="M1471.6-39.5v50c0,0.3-0.3,0.6-0.6,0.6h-6.5c-0.3,0-0.6-0.3-0.6-0.6v-50c0-0.3,0.3-0.6,0.6-0.6h6.5
				C1471.3-40.1,1471.6-39.8,1471.6-39.5z"/>
			<path class="st20" d="M1491.7-53.3v63.9c0,0.3-0.2,0.5-0.5,0.5h-6.7c-0.3,0-0.5-0.2-0.5-0.5v-63.9c0-0.3,0.2-0.5,0.5-0.5h6.7
				C1491.4-53.8,1491.7-53.6,1491.7-53.3z"/>
			<ellipse class="st27" cx="1540.5" cy="-21.3" rx="14.2" ry="14.2"/>
			<line class="st28" x1="1421.2" y1="11.8" x2="1496.1" y2="11.8"/>
		</g>
	</g>
</g>
<g>
	
		<image style="overflow:visible;opacity:0.75;" width="452" height="367" xlink:href="A64BD87D.png"  transform="matrix(0.24 0 0 0.24 1428.537 77.4622)">
	</image>
	<g>
		
			<linearGradient id="SVGID_1_" gradientUnits="userSpaceOnUse" x1="1436.7123" y1="368.2256" x2="1514.9968" y2="368.2256" gradientTransform="matrix(1 0 0 -1 0 482.6844)">
			<stop  offset="0" style="stop-color:#8DAAFC"/>
			<stop  offset="1" style="stop-color:#3457D5"/>
		</linearGradient>
		<path class="st29" d="M1446.5,137.5c1.1,0.8,2.8,1.9,5,3c6.7,3.1,12.9,3,17,2.8c9.3-0.4,20.9-0.9,34.4-2
			c1.8-1.4,11.7-9.5,12.1-22.2c0.5-13.8-10.5-27.5-27.1-31.5c-17.1-4.7-34.2-0.5-43.3,10.9c-0.8,1-12.2,15.7-6.1,29.5
			C1440.6,132.6,1444,135.7,1446.5,137.5z"/>
	</g>
</g>
<g>
	<path class="st0" d="M1445.2,136.5c8.8-2.2,16.2-3.1,21.6-3.4c9.2-0.5,17.2-0.9,26.3,2.7c4.4,1.7,7.7,3.9,9.8,5.4
		c-2.5,0.1-6.4,0.2-11.2,0.5c-11.4,0.7-14.9,1.5-23.2,1.5c-8.9,0-12.6-1-15.7-2.2C1449.4,139.6,1446.9,137.9,1445.2,136.5z"/>
</g>
<path class="st30" d="M1491.7,121.3l-41.8,0.9c-4.1,0.1-7.5-3.2-7.5-7.3l0-0.7c0-4.1,3.2-7.4,7.3-7.4c13.9-0.1,27.9-0.2,41.9-0.3
	c4.1,0,7.4,3.2,7.4,7.3c0,0.1,0,0.1,0,0.1C1498.9,118,1495.7,121.3,1491.7,121.3z"/>
<g>
	<circle class="st1" cx="1454.6" cy="114.5" r="3.5"/>
</g>
<g>
	<circle class="st1" cx="1483.9" cy="114.6" r="3.5"/>
</g>
<g>
	<path class="st1" d="M1463.4,114.6c0.8,2,2.5,3.4,4.4,3.5c0.9,0.1,1.9-0.1,2.8-0.6c0.9-0.5,1.6-1.2,2.2-2.1
		c-0.2,1.1-0.9,2.1-1.8,2.7c-0.9,0.7-2.1,1-3.3,0.9s-2.3-0.7-3.1-1.5C1463.9,116.8,1463.5,115.7,1463.4,114.6z"/>
</g>
<g>
	
		<image style="overflow:visible;opacity:0.75;" width="409" height="455" xlink:href="A64BD87F.png"  transform="matrix(0.24 0 0 0.24 1429.7371 141.3022)">
	</image>
	<g>
		
			<linearGradient id="SVGID_00000180339656246915164710000015443432911288641930_" gradientUnits="userSpaceOnUse" x1="1437.8329" y1="293.7077" x2="1505.8127" y2="293.7077" gradientTransform="matrix(1 0 0 -1 0 482.6844)">
			<stop  offset="0" style="stop-color:#8DAAFC"/>
			<stop  offset="1" style="stop-color:#3457D5"/>
		</linearGradient>
		<path style="fill:url(#SVGID_00000180339656246915164710000015443432911288641930_);" d="M1437.8,154.2l2.2,47
			c0.7,15.3,13.3,27.3,28.6,27.3l0,0c16.1,0,30-11.5,32.9-27.4l2.8-15.4l1.4-29.9c-6.9-2.5-16.1-5-27-5.9
			C1461.3,148.3,1447,151.4,1437.8,154.2z"/>
	</g>
</g>
<g>
	<path class="st0" d="M1437.8,154.2c8.6,3.1,22,6.7,38.7,6.3c12-0.2,22-2.5,29.3-4.7c-8.9-3.2-22.9-6.9-40.3-6.3
		C1454.4,149.9,1445,152,1437.8,154.2z"/>
</g>
<linearGradient id="SVGID_00000139985699436256396620000002879428814269978254_" gradientUnits="userSpaceOnUse" x1="1410.5038" y1="325.4411" x2="1439.8231" y2="325.4411" gradientTransform="matrix(1 0 0 -1 0 482.6844)">
	<stop  offset="0" style="stop-color:#8DAAFC"/>
	<stop  offset="1" style="stop-color:#3457D5"/>
</linearGradient>
<path style="fill:url(#SVGID_00000139985699436256396620000002879428814269978254_);" d="M1417.7,139.6c-1.2-0.8-2.6-1.1-4-0.8
	c-0.5,0.1-1.1,0.4-1.6,0.8c-1.7,1.4-2.2,4-1,6.4c0.2,0.5,0.5,0.9,0.9,1.2c9.3,9.5,18.5,19,27.8,28.5l-0.9-21.6L1417.7,139.6z"/>
<g>
	
		<image style="overflow:visible;opacity:0.75;" width="240" height="306" xlink:href="8F6481C.png"  transform="matrix(0.24 0 0 0.24 1485.177 147.5422)">
	</image>
	<g>
		
			<linearGradient id="SVGID_00000031189722357828199880000003396750520278655106_" gradientUnits="userSpaceOnUse" x1="1493.2228" y1="305.3676" x2="1520.7563" y2="305.3676" gradientTransform="matrix(1 0 0 -1 0 482.6844)">
			<stop  offset="0" style="stop-color:#8DAAFC"/>
			<stop  offset="1" style="stop-color:#3457D5"/>
		</linearGradient>
		<path style="fill:url(#SVGID_00000031189722357828199880000003396750520278655106_);" d="M1519.5,197.9c2-1.9,1.2-5.8,0.5-8.7
			c-2.8-10.7-11.1-28.7-13.3-33.4c-4.5,1.3-8.9,2.6-13.4,3.9c3.5,9,15.6,38.9,22.6,39.3C1518.3,199,1519.5,197.9,1519.5,197.9z"/>
	</g>
</g>
<circle class="st34" cx="1468.2" cy="187.4" r="8.4"/>
<g>
	<circle class="st35" cx="1468.2" cy="187.4" r="6.1"/>
</g>
<circle class="st1" cx="1468.2" cy="187.4" r="4.3"/>
<path class="st36" d="M1338.7,185.9h-70.3c-1.4,0-2.5-1.1-2.5-2.5v-1h75.2v1C1341.2,184.8,1340.1,185.9,1338.7,185.9z"/>
<path class="st0" d="M1881,425.2v141.1c0,16.8-13.6,30.4-30.4,30.4h0c-16.8,0-30.4-13.6-30.4-30.4V424.8c0-26.3-17.2-49.8-42.5-57.1
	c-6.3-1.8-12.9-2.6-19.7-2.2c-5.7,0.3-11.3,1.6-16.6,3.5c-23.1,8.5-38.2,30.8-38.2,55.4v142c0,16.8-13.6,30.4-30.4,30.4l0,0
	c-16.8,0-30.4-13.6-30.4-30.4V423.8c0-64.3,51.2-117.2,115.5-118.6c0.6,0,1.2,0,1.7,0c0.6,0,1.2,0,1.8,0
	C1827.4,305,1881,359,1881,425.2z"/>
<path class="st0" d="M1761.8,596.7L1761.8,596.7c-17,0-30.7-13.8-30.7-30.7V448.4c1.8,1.9,13.4,13.8,31.8,13.4
	c17.1-0.4,27.7-11.3,29.6-13.4V566C1792.6,583,1778.8,596.7,1761.8,596.7z"/>
<circle class="st0" cx="1761.9" cy="418.5" r="24.3"/>
<path class="st0" d="M214.1,149.3"/>
<path class="st1" d="M1192.5,281.9"/>
</svg>
